<svg width="12" height="14" viewBox="0 0 12 14" fill="none" xmlns="http://www.w3.org/2000/svg">
<path d="M10.375 3.875C10.375 3.46462 10.2942 3.05826 10.1371 2.67911C9.98008 2.29997 9.74989 1.95547 9.45971 1.66529C9.16953 1.37511 8.82503 1.14492 8.44589 0.987876C8.06674 0.830831 7.66038 0.75 7.25 0.75H4.4375C3.6087 0.75 2.81384 1.07924 2.22779 1.66529C1.64174 2.25134 1.3125 3.0462 1.3125 3.875C1.3125 4.7038 1.64174 5.49866 2.22779 6.08471C2.81384 6.67076 3.6087 7 4.4375 7H7.875C8.7038 7 9.49866 7.32924 10.0847 7.91529C10.6708 8.50134 11 9.2962 11 10.125C11 10.9538 10.6708 11.7487 10.0847 12.3347C9.49866 12.9208 8.7038 13.25 7.875 13.25H4.125C3.2962 13.25 2.50134 12.9208 1.91529 12.3347C1.32924 11.7487 1 10.9538 1 10.125" stroke="#C8CCD1" stroke-width="1.5" stroke-linecap="round" stroke-linejoin="round"/>
</svg>