<svg width="68" height="68" viewBox="0 0 68 68" fill="none" xmlns="http://www.w3.org/2000/svg">
<rect width="68" height="68" rx="6" fill="url(#paint0_radial_955_1470)"/>
<rect width="68" height="68" rx="6" fill="url(#paint1_radial_955_1470)"/>
<g clip-path="url(#clip0_955_1470)">
<path d="M29.3346 34C29.3346 31.4228 31.4233 29.333 34.0005 29.333C36.5777 29.333 38.6675 31.4228 38.6675 34C38.6675 36.5772 36.5777 38.667 34.0005 38.667C31.4233 38.667 29.3346 36.5772 29.3346 34ZM26.8117 34C26.8117 37.9704 30.0301 41.1888 34.0005 41.1888C37.9709 41.1888 41.1893 37.9704 41.1893 34C41.1893 30.0296 37.9709 26.8112 34.0005 26.8112C30.0301 26.8112 26.8117 30.0296 26.8117 34ZM39.7939 26.5261C39.7938 26.8584 39.8922 27.1833 40.0767 27.4596C40.2612 27.7359 40.5234 27.9514 40.8304 28.0787C41.1373 28.2059 41.4751 28.2393 41.801 28.1746C42.1269 28.11 42.4263 27.9501 42.6614 27.7152C42.8964 27.4804 43.0565 27.1811 43.1215 26.8552C43.1864 26.5293 43.1533 26.1915 43.0263 25.8845C42.8992 25.5775 42.684 25.315 42.4078 25.1303C42.1316 24.9456 41.8069 24.8469 41.4746 24.8468H41.4739C41.0285 24.847 40.6014 25.024 40.2864 25.3389C39.9714 25.6537 39.7943 26.0807 39.7939 26.5261ZM28.3445 45.3957C26.9795 45.3335 26.2377 45.1061 25.7446 44.9141C25.091 44.6596 24.6246 44.3565 24.1343 43.8669C23.644 43.3772 23.3404 42.9113 23.0871 42.2576C22.8949 41.7648 22.6675 41.0227 22.6055 39.6578C22.5376 38.1821 22.5241 37.7388 22.5241 34.0001C22.5241 30.2614 22.5387 29.8194 22.6055 28.3424C22.6677 26.9775 22.8967 26.2368 23.0871 25.7426C23.3416 25.0889 23.6446 24.6226 24.1343 24.1322C24.624 23.6419 25.0899 23.3384 25.7446 23.085C26.2374 22.8928 26.9795 22.6655 28.3445 22.6034C29.8202 22.5356 30.2635 22.522 34.0005 22.522C37.7375 22.522 38.1812 22.5367 39.6582 22.6034C41.0231 22.6656 41.7638 22.8946 42.258 23.085C42.9116 23.3384 43.378 23.6426 43.8684 24.1322C44.3587 24.6219 44.6611 25.0889 44.9156 25.7426C45.1077 26.2354 45.3351 26.9775 45.3972 28.3424C45.465 29.8194 45.4786 30.2614 45.4786 34.0001C45.4786 37.7388 45.465 38.1808 45.3972 39.6578C45.335 41.0227 45.1065 41.7646 44.9156 42.2576C44.6611 42.9113 44.358 43.3776 43.8684 43.8669C43.3787 44.3561 42.9116 44.6596 42.258 44.9141C41.7652 45.1063 41.0231 45.3336 39.6582 45.3957C38.1825 45.4635 37.7392 45.4771 34.0005 45.4771C30.2618 45.4771 29.8197 45.4635 28.3445 45.3957ZM28.2286 20.0848C26.7382 20.1527 25.7198 20.389 24.8304 20.7351C23.9093 21.0924 23.1295 21.5719 22.3504 22.3499C21.5712 23.1278 21.0929 23.9088 20.7355 24.8299C20.3895 25.7198 20.1531 26.7377 20.0853 28.2281C20.0163 29.7208 20.0005 30.198 20.0005 34C20.0005 37.802 20.0163 38.2792 20.0853 39.7719C20.1531 41.2624 20.3895 42.2802 20.7355 43.1701C21.0929 44.0906 21.5713 44.8725 22.3504 45.6501C23.1294 46.4277 23.9093 46.9065 24.8304 47.2649C25.7214 47.611 26.7382 47.8473 28.2286 47.9152C29.7221 47.9831 30.1985 48 34.0005 48C37.8024 48 38.2797 47.9842 39.7724 47.9152C41.2629 47.8473 42.2806 47.611 43.1706 47.2649C44.0911 46.9065 44.8714 46.4281 45.6506 45.6501C46.4298 44.8722 46.907 44.0906 47.2654 43.1701C47.6115 42.2802 47.8489 41.2623 47.9157 39.7719C47.9836 38.2781 47.9994 37.802 47.9994 34C47.9994 30.198 47.9836 29.7208 47.9157 28.2281C47.8478 26.7376 47.6115 25.7193 47.2654 24.8299C46.907 23.9094 46.4286 23.1291 45.6506 22.3499C44.8727 21.5707 44.0911 21.0924 43.1717 20.7351C42.2806 20.389 41.2628 20.1515 39.7735 20.0848C38.2808 20.0169 37.8036 20 34.0016 20C30.1997 20 29.7221 20.0158 28.2286 20.0848Z" fill="white"/>
<path d="M29.3346 34C29.3346 31.4228 31.4233 29.333 34.0005 29.333C36.5777 29.333 38.6675 31.4228 38.6675 34C38.6675 36.5772 36.5777 38.667 34.0005 38.667C31.4233 38.667 29.3346 36.5772 29.3346 34ZM26.8117 34C26.8117 37.9704 30.0301 41.1888 34.0005 41.1888C37.9709 41.1888 41.1893 37.9704 41.1893 34C41.1893 30.0296 37.9709 26.8112 34.0005 26.8112C30.0301 26.8112 26.8117 30.0296 26.8117 34ZM39.7939 26.5261C39.7938 26.8584 39.8922 27.1833 40.0767 27.4596C40.2612 27.7359 40.5234 27.9514 40.8304 28.0787C41.1373 28.2059 41.4751 28.2393 41.801 28.1746C42.1269 28.11 42.4263 27.9501 42.6614 27.7152C42.8964 27.4804 43.0565 27.1811 43.1215 26.8552C43.1864 26.5293 43.1533 26.1915 43.0263 25.8845C42.8992 25.5775 42.684 25.315 42.4078 25.1303C42.1316 24.9456 41.8069 24.8469 41.4746 24.8468H41.4739C41.0285 24.847 40.6014 25.024 40.2864 25.3389C39.9714 25.6537 39.7943 26.0807 39.7939 26.5261ZM28.3445 45.3957C26.9795 45.3335 26.2377 45.1061 25.7446 44.9141C25.091 44.6596 24.6246 44.3565 24.1343 43.8669C23.644 43.3772 23.3404 42.9113 23.0871 42.2576C22.8949 41.7648 22.6675 41.0227 22.6055 39.6578C22.5376 38.1821 22.5241 37.7388 22.5241 34.0001C22.5241 30.2614 22.5387 29.8194 22.6055 28.3424C22.6677 26.9775 22.8967 26.2368 23.0871 25.7426C23.3416 25.0889 23.6446 24.6226 24.1343 24.1322C24.624 23.6419 25.0899 23.3384 25.7446 23.085C26.2374 22.8928 26.9795 22.6655 28.3445 22.6034C29.8202 22.5356 30.2635 22.522 34.0005 22.522C37.7375 22.522 38.1812 22.5367 39.6582 22.6034C41.0231 22.6656 41.7638 22.8946 42.258 23.085C42.9116 23.3384 43.378 23.6426 43.8684 24.1322C44.3587 24.6219 44.6611 25.0889 44.9156 25.7426C45.1077 26.2354 45.3351 26.9775 45.3972 28.3424C45.465 29.8194 45.4786 30.2614 45.4786 34.0001C45.4786 37.7388 45.465 38.1808 45.3972 39.6578C45.335 41.0227 45.1065 41.7646 44.9156 42.2576C44.6611 42.9113 44.358 43.3776 43.8684 43.8669C43.3787 44.3561 42.9116 44.6596 42.258 44.9141C41.7652 45.1063 41.0231 45.3336 39.6582 45.3957C38.1825 45.4635 37.7392 45.4771 34.0005 45.4771C30.2618 45.4771 29.8197 45.4635 28.3445 45.3957ZM28.2286 20.0848C26.7382 20.1527 25.7198 20.389 24.8304 20.7351C23.9093 21.0924 23.1295 21.5719 22.3504 22.3499C21.5712 23.1278 21.0929 23.9088 20.7355 24.8299C20.3895 25.7198 20.1531 26.7377 20.0853 28.2281C20.0163 29.7208 20.0005 30.198 20.0005 34C20.0005 37.802 20.0163 38.2792 20.0853 39.7719C20.1531 41.2624 20.3895 42.2802 20.7355 43.1701C21.0929 44.0906 21.5713 44.8725 22.3504 45.6501C23.1294 46.4277 23.9093 46.9065 24.8304 47.2649C25.7214 47.611 26.7382 47.8473 28.2286 47.9152C29.7221 47.9831 30.1985 48 34.0005 48C37.8024 48 38.2797 47.9842 39.7724 47.9152C41.2629 47.8473 42.2806 47.611 43.1706 47.2649C44.0911 46.9065 44.8714 46.4281 45.6506 45.6501C46.4298 44.8722 46.907 44.0906 47.2654 43.1701C47.6115 42.2802 47.8489 41.2623 47.9157 39.7719C47.9836 38.2781 47.9994 37.802 47.9994 34C47.9994 30.198 47.9836 29.7208 47.9157 28.2281C47.8478 26.7376 47.6115 25.7193 47.2654 24.8299C46.907 23.9094 46.4286 23.1291 45.6506 22.3499C44.8727 21.5707 44.0911 21.0924 43.1717 20.7351C42.2806 20.389 41.2628 20.1515 39.7735 20.0848C38.2808 20.0169 37.8036 20 34.0016 20C30.1997 20 29.7221 20.0158 28.2286 20.0848Z" fill="white"/>
</g>
<defs>
<radialGradient id="paint0_radial_955_1470" cx="0" cy="0" r="1" gradientUnits="userSpaceOnUse" gradientTransform="translate(9.03457 68.3212) scale(88.7718 88.7683)">
<stop offset="0.09" stop-color="#FA8F21"/>
<stop offset="0.78" stop-color="#D82D7E"/>
</radialGradient>
<radialGradient id="paint1_radial_955_1470" cx="0" cy="0" r="1" gradientUnits="userSpaceOnUse" gradientTransform="translate(41.2407 71.3676) scale(69.9645 69.9617)">
<stop offset="0.64" stop-color="#8C3AAA" stop-opacity="0"/>
<stop offset="1" stop-color="#8C3AAA"/>
</radialGradient>
<clipPath id="clip0_955_1470">
<rect width="28" height="28" fill="white" transform="translate(20 20)"/>
</clipPath>
</defs>
</svg>
