<svg width="19" height="20" viewBox="0 0 19 20" fill="none" xmlns="http://www.w3.org/2000/svg">
<path d="M5.66965 10.2014C6.44762 11.7919 7.73687 13.0753 9.3309 13.846C9.44753 13.9013 9.57654 13.9252 9.70523 13.9155C9.83392 13.9058 9.95786 13.8627 10.0648 13.7905L12.4119 12.2254C12.5157 12.1562 12.6352 12.1139 12.7594 12.1025C12.8837 12.0911 13.0088 12.1109 13.1235 12.16L17.5144 14.0419C17.6636 14.1052 17.7881 14.2154 17.8693 14.3556C17.9504 14.4959 17.9838 14.6588 17.9643 14.8197C17.8255 15.9057 17.2956 16.9039 16.4739 17.6273C15.6521 18.3508 14.5948 18.7499 13.5 18.75C10.1185 18.75 6.87548 17.4067 4.48439 15.0156C2.0933 12.6245 0.75 9.38148 0.75 5.99997C0.750058 4.90513 1.14918 3.84786 1.87264 3.0261C2.5961 2.20435 3.59428 1.67448 4.68028 1.53569C4.84117 1.51622 5.00403 1.54956 5.14432 1.6307C5.28461 1.71183 5.39473 1.83636 5.4581 1.98552L7.34158 6.38032C7.3903 6.494 7.41015 6.61796 7.39936 6.74116C7.38858 6.86436 7.3475 6.98299 7.27977 7.08647L5.72011 9.46957C5.64912 9.57677 5.60716 9.70056 5.59831 9.82883C5.58947 9.9571 5.61405 10.0855 5.66965 10.2014V10.2014Z" stroke="#0066FF" stroke-width="1.5" stroke-linecap="round" stroke-linejoin="round"/>
</svg>
