<svg width="20" height="21" viewBox="0 0 20 21" fill="none" xmlns="http://www.w3.org/2000/svg">
<path d="M8.3335 11.333C8.69137 11.8114 9.14796 12.2073 9.67229 12.4938C10.1966 12.7802 10.7764 12.9506 11.3724 12.9933C11.9683 13.0359 12.5665 12.95 13.1263 12.7411C13.6861 12.5323 14.1944 12.2055 14.6168 11.783L17.1168 9.28298C17.8758 8.49714 18.2958 7.44463 18.2863 6.35214C18.2768 5.25965 17.8386 4.2146 17.0661 3.44207C16.2935 2.66953 15.2485 2.23133 14.156 2.22184C13.0635 2.21234 12.011 2.63232 11.2252 3.39131L9.79183 4.81631" stroke="#0066FF" stroke-width="1.5" stroke-linecap="round" stroke-linejoin="round"/>
<path d="M11.6668 9.66702C11.309 9.18858 10.8524 8.7927 10.328 8.50623C9.80371 8.21977 9.22391 8.04942 8.62796 8.00674C8.03201 7.96406 7.43384 8.05004 6.87405 8.25887C6.31425 8.46769 5.8059 8.79446 5.3835 9.21702L2.8835 11.717C2.12451 12.5029 1.70453 13.5554 1.71402 14.6479C1.72352 15.7403 2.16172 16.7854 2.93426 17.5579C3.70679 18.3305 4.75184 18.7687 5.84433 18.7782C6.93681 18.7877 7.98932 18.3677 8.77517 17.6087L10.2002 16.1837" stroke="#0066FF" stroke-width="1.5" stroke-linecap="round" stroke-linejoin="round"/>
</svg>
